PathFileType	4	(X/Y/Z)	/Users/niels/Desktop/University/Third Semester/Perception and Action/Exam/Gymnastics Motion Tracking/Code for Gym Tracking/Analyzed Data/Webcam_Backflip/id8_3_pure_Sports2D/id8_3_pure_Sports2D_px_person00.trc
DataRate	CameraRate	NumFrames	NumMarkers	Units	OrigDataRate	OrigDataStartFrame	OrigNumFrames
29.81132075471698	29.81132075471698	12	22	m	29.81132075471698	99	159
Frame#	Time	Hip			RHip			RKnee			RAnkle			RBigToe			RSmallToe			RHeel			LHip			LKnee			LAnkle			LBigToe			LSmallToe			LHeel			Neck			Head			Nose			RShoulder			RElbow			RWrist			LShoulder			LElbow			LWrist		
		X1	Y1	Z1	X2	Y2	Z2	X3	Y3	Z3	X4	Y4	Z4	X5	Y5	Z5	X6	Y6	Z6	X7	Y7	Z7	X8	Y8	Z8	X9	Y9	Z9	X10	Y10	Z10	X11	Y11	Z11	X12	Y12	Z12	X13	Y13	Z13	X14	Y14	Z14	X15	Y15	Z15	X16	Y16	Z16	X17	Y17	Z17	X18	Y18	Z18	X19	Y19	Z19	X20	Y20	Z20	X21	Y21	Z21	X22	Y22	Z22
99	3.320886075949367	0.9291642820479401	-0.5626047284110353	0.0	0.9285267389886361	-0.5596154843867277	0.0	0.9357060734234863	-0.6592572542355741	0.0	0.8777373373749939	-0.7450823757346222	0.0	0.9064584765833816	-0.7713155209357478	0.0	0.8983097436631721	-0.7723200598283834	0.0	0.863686469356474	-0.7549351231695945	0.0	0.929780816091461	-0.5602233890222497	0.0	0.9532949077324514	-0.6576446182885775	0.0	0.9715056588247512	-0.751450295355085	0.0	1.0090916957471445	-0.7678839087312048	0.0	1.0048889844048363	-0.764687111864643	0.0	0.9666045694723842	-0.7619802229217645	0.0	0.9420625190216008	-0.429875862573994	0.0	0.9530936913985254	-0.37386527757829335	0.0	0.9712433164423613	-0.40188249657654873	0.0	0.9382173477443113	-0.44994236043496966	0.0	0.9312690243351393	-0.5156539898766037	0.0	0.941045516441981	-0.5708219428747294	0.0	0.9360177713218487	-0.4489940792030434	0.0	0.9247249350938187	-0.5132816476020893	0.0	0.9339156226293224	-0.5654550885768405	0.0
100	3.354430379746835	0.9321765849342428	-0.5540594876745252	0.0	0.9321832996731624	-0.5514127414274703	0.0	0.945165812735325	-0.6515362910482162	0.0	0.8879594792994236	-0.7379847416069459	0.0	0.916492144873515	-0.7664472691966937	0.0	0.908249248620029	-0.766793614053304	0.0	0.8735027127077952	-0.7480613559538601	0.0	0.9322882283041365	-0.5512700087682946	0.0	0.9568233239033667	-0.6505213930064931	0.0	0.9735041918524175	-0.7455217300150471	0.0	1.0094897099451878	-0.764778914643012	0.0	1.0054107841409312	-0.7615293639771145	0.0	0.9684353561622491	-0.7566733343483374	0.0	0.9450713868234124	-0.4222488594255941	0.0	0.9563601485445962	-0.36538363177743527	0.0	0.9740559696559628	-0.3937309110534905	0.0	0.9410053314371921	-0.442009221148706	0.0	0.9338417793613135	-0.5076542248705072	0.0	0.9441604984217837	-0.5626470077955235	0.0	0.9392568735667797	-0.44128126249629	0.0	0.9281388591953154	-0.5049961033341404	0.0	0.9388550833865101	-0.556742491919137	0.0
101	3.3879746835443036	0.9356210356741733	-0.549019416177912	0.0	0.9361416309749351	-0.5469296279563383	0.0	0.9530376878309852	-0.6468982769144492	0.0	0.9006337799244808	-0.735258060306934	0.0	0.929987355764209	-0.7646219578816765	0.0	0.9211375457316825	-0.7647033710990165	0.0	0.8863933646078832	-0.7461921175998948	0.0	0.9354232597358759	-0.5461195782231758	0.0	0.9604432055528409	-0.646456772846804	0.0	0.9750257262698091	-0.7421792832119938	0.0	1.0091588339807442	-0.7639256767004207	0.0	1.0052704067794531	-0.7607545185270888	0.0	0.9699703174676192	-0.7543682139339802	0.0	0.9478476323379602	-0.4177768125067539	0.0	0.9589514293450848	-0.3597836911367138	0.0	0.9764922245052131	-0.3885843159132946	0.0	0.943635542043144	-0.43748908247559176	0.0	0.9365914438105626	-0.5028868449540825	0.0	0.9478618562850706	-0.5578332480707644	0.0	0.9420216298637782	-0.4368425102348747	0.0	0.9314271411507871	-0.4998042821265219	0.0	0.9432194540837886	-0.5513350942404381	0.0
102	3.421518987341772	0.9394568536659456	-0.5478360556240351	0.0	0.9403519662901284	-0.5462999504893179	0.0	0.9591893116902273	-0.6457105732946538	0.0	0.9150138996315702	-0.736870872062675	0.0	0.945967497817382	-0.7656530080674497	0.0	0.9361214004548691	-0.7659372702552221	0.0	0.901591590531221	-0.7491105868898665	0.0	0.9389903647436728	-0.5450435805900946	0.0	0.9638597393459362	-0.6457146878691847	0.0	0.9756271691646176	-0.7416266257304517	0.0	1.0081334542049707	-0.765142524215346	0.0	1.004390943345385	-0.7621094902882092	0.0	0.9706620646887272	-0.755024456727335	0.0	0.9504796302213467	-0.41667753251347356	0.0	0.9609021914734482	-0.35743242821367316	0.0	0.9786691819228904	-0.38683741139972755	0.0	0.9461891227743493	-0.43664335351625505	0.0	0.9395569174844643	-0.5017264181094815	0.0	0.9520627748520973	-0.5567509427381164	0.0	0.9445582405761511	-0.43594083847902576	0.0	0.9350561454667928	-0.49816293946656215	0.0	0.9476531892703918	-0.5497314404370833	0.0
103	3.4550632911392403	0.9435351492113013	-0.550471142190506	0.0	0.9447290868260527	-0.5493425325991964	0.0	0.9638177268743975	-0.647980336014277	0.0	0.9298073898641256	-0.7420526820539517	0.0	0.9625273178996501	-0.769110027778152	0.0	0.9516013433368765	-0.769973770074566	0.0	0.917641863039538	-0.7556590741443665	0.0	0.9427143438630604	-0.5478806411736337	0.0	0.966796610956596	-0.6482539967704074	0.0	0.9750337772110419	-0.7438050354197707	0.0	1.0066470708406003	-0.7681524515565882	0.0	1.0029073218358702	-0.7652496037138061	0.0	0.970036777086773	-0.7583142553431272	0.0	0.9529944309848076	-0.4189076174172263	0.0	0.9623762235992144	-0.35840078226094524	0.0	0.9806616998619547	-0.3885105939939608	0.0	0.9486503677041391	-0.4393692183952113	0.0	0.9427310136856167	-0.5042480424594974	0.0	0.9566906783322233	-0.559409151212999	0.0	0.9470230012293535	-0.4384830780183581	0.0	0.9392619295024365	-0.500196484152459	0.0	0.9526582190461212	-0.5520528988210736	0.0
104	3.488607594936709	0.9476478663563956	-0.5564706334625403	0.0	0.9491859298968641	-0.555592829553774	0.0	0.9672618866678295	-0.6533527824950904	0.0	0.9433921626618098	-0.7497185657627354	0.0	0.9775230454033258	-0.7744332725268103	0.0	0.9657550642345496	-0.7760822637911224	0.0	0.9326439367140097	-0.7644214916121307	0.0	0.9463680701823088	-0.5541035735665236	0.0	0.9691052855832312	-0.6537013158805861	0.0	0.9732848836658679	-0.7484312480261458	0.0	1.005033834393995	-0.7726983723584778	0.0	1.0011143384876602	-0.7698915940445633	0.0	0.9679462885389027	-0.7637587274346344	0.0	0.9553582830569695	-0.42416169320036723	0.0	0.9636015496165953	-0.36250230638653025	0.0	0.9824809424326337	-0.39324594339248203	0.0	0.9509679051899416	-0.44523126148060904	0.0	0.9461008559495168	-0.51016250658516	0.0	0.9616760427697639	-0.5654466882762663	0.0	0.9494022695817593	-0.44406270512096735	0.0	0.9438375061596112	-0.5056452852914167	0.0	0.9582164160422819	-0.5579171780388585	0.0
105	3.522151898734177	0.9515544595395969	-0.5650246568910602	0.0	0.9535675274267291	-0.5643093635279496	0.0	0.9698351597109277	-0.6611165257817258	0.0	0.9542448085488927	-0.7588416001763778	0.0	0.989244914523914	-0.7810125389714625	0.0	0.9770406297383645	-0.7834757112660797	0.0	0.9447944317378271	-0.7742312884821749	0.0	0.9497856106254343	-0.5628968006749271	0.0	0.9707978780915747	-0.6613551409603682	0.0	0.9707849759631897	-0.7550774953271022	0.0	1.0036085901633727	-0.7785222153141121	0.0	0.9993510680899037	-0.7757887227929217	0.0	0.9647703561875663	-0.7708431273098706	0.0	0.9575088997645699	-0.4318554724179655	0.0	0.9647577425441981	-0.3693099033713521	0.0	0.9841255089130313	-0.40042296323029614	0.0	0.9530962181068409	-0.45352230159258533	0.0	0.949659160141634	-0.5188277636035512	0.0	0.9669556035131568	-0.5741952767977624	0.0	0.9515821099860886	-0.4520324589846926	0.0	0.9483589478700101	-0.5139086760105317	0.0	0.9639525851469772	-0.5665302264645656	0.0
106	3.5556962025316454	0.9550272795096786	-0.575127900927158	0.0	0.9576132486190398	-0.5745538782320353	0.0	0.9717313676242473	-0.6703034039426681	0.0	0.9614830731028149	-0.7685938315143578	0.0	0.9968760233702614	-0.7882735997492298	0.0	0.9845954341685402	-0.7914229891862986	0.0	0.9530612414082427	-0.7842800927644047	0.0	0.9528480759570993	-0.5732626943247632	0.0	0.9719864873729596	-0.6703013907945707	0.0	0.9681495465604982	-0.7631853949687277	0.0	1.0026318258353073	-0.7852292192349477	0.0	0.997935734296566	-0.7825770898586987	0.0	0.9613247353522225	-0.7789982699498422	0.0	0.9593958396198083	-0.4411719572814142	0.0	0.9659279200322524	-0.37812229218829657	0.0	0.9856236074351864	-0.4092839510555813	0.0	0.9549978764372914	-0.46334749790737617	0.0	0.9533513723022633	-0.5293341443645525	0.0	0.9724376566897467	-0.5847610406288253	0.0	0.9534649755268632	-0.4615732696603249	0.0	0.9524774158411001	-0.5240891791175663	0.0	0.9694574098461904	-0.5768987240177176	0.0
107	3.589240506329114	0.9579163996555307	-0.5856841215465504	0.0	0.9610439681135743	-0.585261412603226	0.0	0.9730424893277024	-0.6798632499259911	0.0	0.9651938829345468	-0.77827701416338	0.0	1.0006626797160012	-0.7956699208673788	0.0	0.9885068695956581	-0.799273579186303	0.0	0.9575378960027747	-0.7939493386884897	0.0	0.9554769827221341	-0.5840838631493839	0.0	0.9727949092936851	-0.6795730032107222	0.0	0.9659182481347027	-0.7719938379168226	0.0	1.0022694358326336	-0.7922035471909736	0.0	0.9970923424208866	-0.7896766104475237	0.0	0.958440201317106	-0.7875055621443722	0.0	0.9610095421231993	-0.4511273693379341	0.0	0.9671396858550366	-0.3879609513134715	0.0	0.9870152112614373	-0.4189487724155867	0.0	0.9566470219589571	-0.47370281660449964	0.0	0.9570230410122326	-0.5405828610076493	0.0	0.9779106946319344	-0.5960808940958149	0.0	0.9550149902784669	-0.47171899466696215	0.0	0.9559613681287802	-0.5350380471987517	0.0	0.9743825966275114	-0.5879370982804633	0.0
108	3.622784810126582	0.9601836465400123	-0.5955515419109565	0.0	0.9636973942010039	-0.5952885741771078	0.0	0.9738585041063351	-0.6887952420018799	0.0	0.9662551735591035	-0.7871746002983798	0.0	1.0016111415184512	-0.802603614412954	0.0	0.9896499773778432	-0.8064128030265947	0.0	0.9591791693643467	-0.8026056498818614	0.0	0.9576320364966384	-0.5941704459836951	0.0	0.973327612998603	-0.6882569253438333	0.0	0.964392386987134	-0.7805414049605433	0.0	1.0025009639441769	-0.798694534475335	0.0	0.9968605950191035	-0.7963617993024701	0.0	0.9565959822311462	-0.7955050083499563	0.0	0.9623822044932567	-0.46063991000753957	0.0	0.9684100827268752	-0.39764159170629515	0.0	0.9883374111622311	-0.4283860930817029	0.0	0.958047210916005	-0.48354304075847576	0.0	0.9604315593474483	-0.5513698346161094	0.0	0.9830120144066221	-0.6069949482904566	0.0	0.9562511982836005	-0.48138355672750976	0.0	0.9586550002421643	-0.545475073813576	0.0	0.978464132686959	-0.5985082831031352	0.0
109	3.6563291139240506	0.9619095866502695	-0.603697719406492	0.0	0.9655967299009768	-0.6035722078294731	0.0	0.9743223712358332	-0.6962182454840629	0.0	0.9658158588893079	-0.7944875349310562	0.0	1.0009459619188747	-0.8083990160554574	0.0	0.9891742911023756	-0.812228333848883	0.0	0.9591748184302455	-0.8095496707860876	0.0	0.9593511293216916	-0.602448189096392	0.0	0.9736933123353895	-0.6955335780728392	0.0	0.9636332348298327	-0.7878120164466361	0.0	1.003101032419767	-0.8039698856922269	0.0	0.9970865996602273	-0.8018926660614605	0.0	0.9558451226120728	-0.8021288588128839	0.0	0.9635735621529249	-0.4686338746689163	0.0	0.9697545510130036	-0.4059253582947711	0.0	0.989629488043193	-0.43648437717767713	0.0	0.9592021666099068	-0.49185481700204237	0.0	0.9632828951216214	-0.5605028110298377	0.0	0.9872982571311095	-0.6163355484644504	0.0	0.9572794624162297	-0.48947596114508196	0.0	0.9605255523440496	-0.5541693012339225	0.0	0.9815789595879426	-0.6075067088590769	0.0
110	3.6898734177215187	0.9632876004667708	-0.609376968304896	0.0	0.9669108217503996	-0.6093256059440587	0.0	0.9746045557646105	-0.701406605729869	0.0	0.9648446242929638	-0.7994148059818239	0.0	0.9997358004980226	-0.812359210016705	0.0	0.9880904402620464	-0.8161239391144267	0.0	0.9584684058854748	-0.8141114756431855	0.0	0.9608129018177685	-0.6081751072620434	0.0	0.974032154468754	-0.7006772319617197	0.0	0.9635177927276497	-0.7928985104901776	0.0	1.0037692711733885	-0.8074122706285566	0.0	0.9975262437752205	-0.8055932301507053	0.0	0.9559288958516303	-0.8066409878191786	0.0	0.9646608960909969	-0.47418798113499333	0.0	0.9711821158801506	-0.41174341971465644	0.0	0.9909117350336739	-0.44224024579329607	0.0	0.960062931392651	-0.49775010043814616	0.0	0.9652794849751871	-0.5669319390893262	0.0	0.9903277043353476	-0.6230176689035416	0.0	0.9583338749775622	-0.49509114884041316	0.0	0.9617408476308703	-0.560121539997404	0.0	0.983728716520988	-0.6139763440591208	0.0
